<?xml version="1.0" standalone="no"?>
<!DOCTYPE svg PUBLIC "-//W3C//DTD SVG 20010904//EN"
 "http://www.w3.org/TR/2001/REC-SVG-20010904/DTD/svg10.dtd">
<svg version="1.0" xmlns="http://www.w3.org/2000/svg"
 width="500.000000pt" height="500.000000pt" viewBox="0 0 500.000000 500.000000"
 preserveAspectRatio="xMidYMid meet">
<metadata>
Created by potrace 1.14, written by Peter Selinger 2001-2017
</metadata>
<g transform="translate(0.000000,500.000000) scale(0.100000,-0.100000)"
fill="#000000" stroke="none">
<path d="M3 4503 c0 -271 4 -493 9 -493 4 0 22 -15 39 -32 17 -18 35 -32 40
-31 4 2 11 -6 14 -17 4 -11 13 -20 22 -20 8 0 28 -13 43 -30 15 -16 31 -30 35
-30 11 0 34 -27 28 -33 -3 -4 4 -4 16 -2 12 2 19 0 16 -5 -3 -5 12 -21 32 -37
21 -15 40 -31 41 -35 2 -5 10 -8 17 -8 8 0 19 -9 25 -20 6 -11 17 -20 25 -20
8 0 15 -5 15 -10 0 -6 11 -15 25 -22 13 -6 22 -15 19 -19 -3 -5 1 -9 8 -9 17
-1 58 -35 58 -49 0 -6 7 -8 15 -5 8 4 15 1 15 -6 0 -6 5 -8 12 -4 8 5 9 2 4
-12 -4 -10 -4 -15 0 -12 3 4 12 2 19 -5 7 -7 23 -19 35 -27 12 -8 28 -21 36
-27 7 -7 18 -13 24 -13 6 0 9 -3 7 -7 -6 -9 19 -34 26 -27 2 3 18 -11 35 -31
17 -19 34 -35 37 -35 12 0 34 -28 28 -34 -4 -3 -1 -6 6 -6 17 0 82 -65 74 -74
-3 -3 1 -6 10 -6 10 0 17 -7 17 -15 0 -8 5 -15 11 -15 6 0 8 -7 5 -16 -5 -12
-2 -15 9 -10 11 4 14 2 8 -7 -4 -6 -7 -22 -8 -34 0 -12 -3 -25 -7 -29 -5 -4
-8 -13 -8 -20 0 -7 -9 -23 -20 -36 -53 -62 -70 -84 -70 -90 0 -14 -38 -47 -45
-40 -4 4 -5 2 -3 -4 3 -11 -40 -78 -74 -115 -10 -10 -15 -19 -10 -19 4 0 2 -4
-4 -8 -17 -12 -67 -82 -58 -82 5 0 -2 -7 -14 -16 -12 -8 -22 -22 -22 -30 0
-21 -35 -65 -45 -56 -4 4 -5 -3 -2 -15 3 -13 1 -23 -5 -23 -6 0 -8 -7 -4 -15
3 -8 2 -15 -3 -15 -22 0 -47 -155 -26 -164 5 -3 5 -5 -2 -5 -9 -1 -8 -11 5
-38 17 -37 62 -92 62 -76 0 4 6 1 13 -8 11 -14 31 -25 50 -27 4 -1 20 -8 35
-16 38 -20 65 -30 80 -27 6 1 12 -2 12 -8 0 -5 19 -13 43 -17 50 -9 56 -11 60
-14 2 -3 27 -7 70 -11 15 -2 27 -6 27 -10 0 -4 11 -6 25 -4 14 1 25 -2 25 -8
0 -5 6 -4 14 2 9 8 15 8 18 2 1 -6 28 -13 58 -16 71 -7 83 -9 95 -17 6 -4 17
-3 25 2 8 5 21 5 29 0 9 -4 43 -10 76 -13 33 -3 60 -6 60 -7 0 0 36 -3 80 -5
88 -5 146 -13 153 -20 3 -2 13 0 23 5 10 6 20 6 23 1 3 -5 23 -8 44 -8 21 0
43 -3 50 -7 7 -4 12 -2 12 6 0 10 2 11 8 0 5 -7 16 -10 25 -6 10 3 17 1 17 -6
0 -6 4 -8 10 -5 14 9 80 12 80 4 0 -3 26 -7 58 -9 31 -1 67 -2 80 -3 12 -1 22
-5 22 -10 0 -5 6 -5 13 2 10 8 17 7 25 -1 7 -7 12 -8 12 -2 0 6 7 11 15 11 8
0 12 -4 9 -9 -3 -4 3 -8 13 -8 15 0 16 -2 3 -10 -10 -7 -11 -10 -2 -10 8 0 11
-9 8 -24 -2 -13 -2 -27 2 -31 3 -3 8 -18 10 -33 2 -15 8 -30 14 -33 7 -4 7 -9
-1 -13 -8 -5 -8 -13 -1 -26 6 -10 11 -32 12 -47 1 -15 6 -34 12 -42 9 -12 8
-13 -3 -7 -8 5 -6 -3 5 -20 12 -17 14 -25 6 -20 -11 7 -12 4 -3 -13 7 -12 9
-26 6 -31 -3 -5 -1 -11 5 -15 13 -8 13 -45 -1 -45 -6 0 -3 -7 5 -16 15 -15 19
-28 19 -67 0 -9 3 -17 7 -17 4 0 6 -13 5 -30 -1 -16 1 -30 5 -30 3 0 7 -11 8
-25 1 -14 3 -36 4 -50 1 -14 5 -25 9 -25 4 0 8 -8 8 -17 0 -21 8 -68 10 -68 1
0 4 -17 6 -39 2 -21 10 -45 17 -54 11 -13 11 -14 -1 -7 -11 6 -13 4 -8 -9 4
-10 7 -20 7 -22 0 -3 4 -3 8 0 5 3 7 -11 5 -31 -1 -20 2 -42 7 -48 5 -6 9 -21
10 -33 1 -55 2 -62 8 -62 4 0 8 -8 9 -17 1 -10 4 -31 8 -48 8 -40 12 -65 14
-93 0 -13 5 -21 9 -18 4 2 8 -5 9 -17 2 -41 10 -87 16 -94 4 -3 7 -16 7 -28 0
-12 3 -25 7 -29 4 -3 8 -17 10 -29 3 -22 14 -50 39 -98 7 -14 10 -30 6 -34 -4
-5 -1 -5 5 -1 7 4 13 2 13 -4 0 -19 45 -67 58 -62 7 2 12 -2 12 -8 0 -7 7 -10
15 -6 8 3 15 1 15 -4 0 -11 79 -8 98 3 6 5 12 5 12 2 0 -4 14 3 30 15 17 12
30 19 30 16 0 -4 35 23 71 57 10 9 19 15 19 13 0 -2 15 10 33 27 18 18 31 34
30 36 -1 2 16 18 37 36 21 18 37 35 34 38 -3 3 4 8 15 12 11 3 23 15 26 26 4
10 10 17 14 14 4 -2 14 7 21 21 8 14 20 22 27 19 8 -2 11 0 8 5 -3 6 1 13 9
16 9 3 14 10 11 14 -3 5 4 11 14 15 11 3 23 15 26 26 4 11 9 18 11 16 7 -7 70
57 66 66 -2 4 5 7 15 7 16 0 76 -47 85 -67 1 -4 17 -20 35 -34 18 -15 30 -29
27 -32 -3 -3 4 -8 15 -12 12 -3 21 -12 21 -19 0 -7 11 -19 25 -26 14 -7 23
-15 21 -18 -7 -7 18 -30 27 -25 4 2 7 -1 7 -7 0 -15 25 -40 41 -40 7 0 9 -3 6
-6 -7 -7 142 -154 156 -154 4 0 6 -4 2 -9 -3 -5 4 -12 15 -16 11 -3 20 -12 20
-18 0 -7 14 -21 30 -32 16 -11 30 -24 30 -28 0 -13 27 -37 34 -30 3 3 8 -2 12
-11 3 -9 12 -16 19 -16 8 0 17 -9 20 -20 3 -11 13 -20 21 -20 13 0 18 -12 15
-32 0 -5 8 -8 18 -8 11 0 23 -9 26 -20 3 -11 13 -20 21 -20 8 0 14 -7 14 -15
0 -8 4 -15 8 -15 14 0 82 -62 77 -70 -2 -4 186 -6 418 -6 l422 1 1 499 1 498
-25 27 c-13 14 -29 25 -36 23 -6 -2 -8 0 -4 4 4 4 -2 15 -14 25 -11 11 -17 19
-12 20 5 0 -1 4 -13 9 -13 5 -23 17 -23 25 0 9 -4 14 -9 10 -6 -3 -15 4 -21
15 -6 11 -16 17 -22 14 -7 -4 -8 -3 -4 4 4 7 2 12 -4 12 -6 0 -8 5 -5 10 6 10
-9 15 -30 10 -5 -1 -7 1 -3 5 4 4 -9 22 -28 40 -18 18 -34 37 -34 44 0 6 -4
10 -9 8 -8 -2 -69 58 -127 126 -17 20 -34 33 -38 29 -4 -4 -7 -2 -5 3 4 16
-12 45 -22 39 -5 -3 -12 3 -16 13 -3 10 -13 22 -20 26 -7 5 -11 12 -8 18 6 8
-8 13 -27 10 -7 -1 -12 23 -9 42 1 5 -3 6 -9 2 -5 -3 -10 -2 -10 3 0 8 -11 23
-50 69 -5 7 -10 19 -10 28 0 8 -4 15 -9 15 -5 0 -8 8 -6 18 2 9 4 27 4 40 1
13 5 20 11 17 6 -3 10 1 10 9 0 9 5 16 12 16 6 0 9 2 6 5 -5 5 42 57 88 96 11
9 31 31 46 49 16 17 28 28 28 24 0 -5 8 3 18 19 10 15 21 25 24 21 4 -3 9 4
13 15 3 12 13 21 21 21 8 0 13 3 12 8 -3 14 14 42 23 36 5 -3 9 -1 9 4 0 14
36 52 44 45 3 -3 6 1 6 10 0 9 5 17 11 17 5 0 8 4 4 9 -3 5 4 12 15 16 11 4
18 10 15 15 -3 5 -1 11 5 15 6 4 7 11 4 17 -4 6 -3 8 3 5 5 -3 17 10 27 28 11
19 23 32 27 29 5 -3 6 2 3 10 -3 9 -1 16 6 16 6 0 9 4 5 9 -3 5 -1 12 4 15 5
4 8 17 7 31 -2 13 0 22 5 20 4 -3 10 -1 13 4 4 5 2 12 -4 16 -6 4 -7 11 -4 17
10 16 14 58 5 58 -4 0 -7 9 -8 21 -1 12 -10 28 -20 36 -10 8 -12 11 -5 8 11
-6 11 -3 0 14 -7 12 -18 21 -25 21 -7 0 -13 5 -13 10 0 6 -7 10 -16 10 -8 0
-13 4 -10 9 3 5 -1 12 -10 15 -10 4 -13 2 -8 -7 4 -6 -3 -2 -15 10 -12 13 -33
26 -46 29 -15 4 -22 11 -18 18 3 6 3 8 -2 4 -7 -6 -84 19 -95 31 -6 7 -29 13
-47 14 -7 0 -13 3 -13 7 0 4 -7 7 -15 8 -8 1 -22 3 -30 4 -8 1 -15 4 -15 8 0
4 -6 7 -12 8 -15 1 -37 7 -58 15 -8 3 -27 8 -42 11 -15 3 -40 11 -55 18 -15 6
-40 12 -54 13 -15 1 -35 6 -45 10 -11 4 -30 10 -44 12 -13 2 -28 10 -32 16 -6
9 -8 9 -8 -1 0 -9 -5 -10 -17 -3 -10 5 -34 11 -53 14 -19 4 -54 11 -78 17 -24
6 -47 8 -52 5 -4 -3 -10 -1 -12 4 -1 5 -23 11 -48 13 -25 1 -47 6 -50 9 -3 4
-16 9 -30 10 -14 2 -28 9 -32 14 -5 6 -8 5 -8 -3 0 -8 -5 -10 -12 -5 -7 4 -21
8 -30 9 -36 3 -39 4 -32 15 4 8 0 8 -15 0 -16 -9 -21 -9 -21 0 0 6 -9 9 -20 6
-11 -3 -27 1 -35 10 -9 9 -15 10 -15 3 0 -6 -5 -8 -10 -5 -11 7 -61 17 -97 19
-13 0 -23 3 -23 6 0 6 -26 11 -72 13 -16 1 -28 5 -28 9 0 5 -3 7 -7 7 -29 -5
-53 2 -47 14 6 9 5 9 -8 0 -8 -7 -17 -10 -20 -8 -3 3 -15 7 -27 10 -28 5 -71
35 -51 35 13 0 13 2 0 10 -8 5 -11 10 -6 10 5 0 4 6 -2 13 -5 6 -12 23 -14 37
-1 14 -6 27 -10 30 -3 3 -8 19 -10 35 -2 17 -8 36 -15 42 -6 7 -10 24 -9 38 2
13 -1 22 -5 19 -8 -5 -14 17 -10 39 0 4 -4 7 -10 7 -5 0 -7 5 -4 10 3 6 3 16
-2 23 -4 6 -8 17 -8 22 0 6 -8 28 -18 49 -10 22 -16 45 -13 52 3 7 -2 15 -10
18 -9 3 -13 10 -10 15 4 5 0 12 -6 14 -10 4 -10 6 0 6 9 1 8 9 -5 28 -12 17
-13 24 -4 19 9 -6 8 -1 -3 16 -9 14 -13 28 -9 31 3 4 2 7 -4 7 -5 0 -10 6 -11
13 -4 32 -10 54 -22 82 -14 33 -16 39 -24 72 -2 12 -10 31 -16 42 -6 12 -8 21
-4 21 3 0 2 6 -3 13 -5 6 -16 32 -23 57 -7 25 -18 51 -24 59 -9 12 -8 13 3 7
9 -6 8 0 -4 17 -9 15 -14 30 -11 36 3 5 2 11 -4 13 -5 1 -11 15 -12 30 -1 15
-6 24 -10 22 -4 -3 -8 9 -8 25 0 17 -5 31 -12 31 -6 0 -8 3 -5 7 4 3 1 13 -6
21 -10 13 -9 14 3 7 10 -5 9 -1 -3 13 -11 12 -16 26 -11 33 5 8 3 10 -6 4 -10
-6 -12 -4 -7 7 3 9 3 19 -1 22 -3 4 -7 16 -9 28 -2 12 -9 26 -16 30 -6 4 -8 8
-3 8 5 0 3 7 -4 15 -7 8 -10 15 -7 15 3 0 0 15 -8 34 -8 18 -11 36 -8 40 4 3
1 6 -5 6 -7 0 -12 7 -12 15 0 8 -4 15 -10 15 -5 0 -7 6 -4 14 3 7 -2 21 -11
30 -9 9 -13 16 -8 16 4 0 -1 7 -11 15 -11 8 -14 15 -8 15 8 0 4 9 -8 23 -12
12 -30 37 -41 55 -19 30 -39 47 -23 20 4 -7 -3 -3 -15 10 -12 12 -33 22 -46
22 -14 0 -25 6 -25 13 0 8 -2 9 -8 1 -4 -6 -19 -10 -34 -8 -16 1 -35 -4 -43
-12 -8 -9 -19 -12 -25 -9 -5 3 -10 1 -10 -5 0 -6 -5 -8 -10 -5 -6 3 -13 -1
-16 -9 -3 -9 -10 -14 -14 -11 -5 3 -11 -4 -15 -15 -6 -18 -17 -24 -38 -21 -4
0 -6 -2 -6 -6 3 -19 -2 -33 -11 -33 -10 0 -50 -36 -50 -45 0 -3 0 -10 0 -16 0
-5 -3 -8 -7 -6 -8 5 -34 -18 -33 -28 1 -7 -18 -30 -57 -70 -17 -18 -29 -35
-26 -38 2 -3 -4 -14 -15 -25 -11 -11 -23 -18 -26 -15 -3 4 -6 1 -6 -6 0 -15
-50 -90 -51 -76 0 6 -5 -1 -11 -15 -6 -14 -10 -29 -9 -33 1 -5 -3 -6 -9 -2 -5
3 -10 1 -10 -5 0 -6 -5 -8 -12 -4 -7 5 -8 3 -3 -5 5 -8 -4 -24 -24 -42 -33
-29 -47 -37 -36 -19 3 6 1 10 -4 10 -6 0 -19 8 -29 18 -11 9 -32 26 -48 37
-15 11 -36 27 -45 37 -10 9 -20 14 -23 11 -3 -4 -6 1 -6 11 0 9 -4 15 -9 11
-5 -3 -17 5 -25 17 -9 12 -16 19 -16 16 0 -4 -11 3 -24 15 -14 12 -36 32 -50
45 -14 12 -32 22 -41 22 -9 0 -14 4 -10 9 3 6 -5 15 -17 22 -12 7 -28 17 -34
23 -27 25 -55 46 -62 46 -4 0 -14 9 -22 19 -7 11 -17 18 -21 16 -4 -3 -9 2
-13 10 -3 8 -13 15 -21 15 -9 0 -13 5 -10 10 3 6 1 10 -5 10 -7 0 -24 9 -40
20 -15 11 -31 16 -35 12 -5 -4 -5 -2 -2 4 7 12 -28 46 -37 37 -3 -4 -6 0 -6 7
0 7 -3 11 -6 8 -3 -4 -19 8 -35 24 -16 17 -29 28 -29 24 0 -4 -7 -1 -15 6 -34
31 -45 38 -45 31 0 -4 -5 0 -11 10 -5 9 -14 17 -20 17 -5 0 -23 14 -41 30 -17
17 -36 30 -42 30 -6 0 -18 9 -26 20 -8 11 -20 20 -28 20 -7 0 -15 6 -18 14
-12 31 -62 34 -465 34 l-406 -1 0 -494z"/>
</g>
</svg>
